Coordinates
version=1
nRows=11
nColumns=63
inDegrees=yes

Units are S.I. units (second, meters, Newtons, ...)
If the header above contains a line with 'inDegrees', this indicates whether rotational values are in degrees (yes) or radians (no).

endheader
time	pelvis_tilt	pelvis_list	pelvis_rotation	pelvis_tx	pelvis_ty	pelvis_tz	hip_flexion_r	hip_adduction_r	hip_rotation_r	knee_angle_r	knee_angle_r_beta	ankle_angle_r	subtalar_angle_r	mtp_angle_r	hip_flexion_l	hip_adduction_l	hip_rotation_l	knee_angle_l	knee_angle_l_beta	ankle_angle_l	subtalar_angle_l	mtp_angle_l	L5_S1_Flex_Ext	L5_S1_Lat_Bending	L5_S1_axial_rotation	L4_L5_Flex_Ext	L4_L5_Lat_Bending	L4_L5_axial_rotation	L3_L4_Flex_Ext	L3_L4_Lat_Bending	L3_L4_axial_rotation	L2_L3_Flex_Ext	L2_L3_Lat_Bending	L2_L3_axial_rotation	L1_L2_Flex_Ext	L1_L2_Lat_Bending	L1_L2_axial_rotation	L1_T12_Flex_Ext	L1_T12_Lat_Bending	L1_T12_axial_rotation	Abs_r3	Abs_r2	Abs_r1	Abs_t1	Abs_t2	neck_flexion	neck_bending	neck_rotation	arm_flex_r	arm_add_r	arm_rot_r	elbow_flex_r	pro_sup_r	wrist_flex_r	wrist_dev_r	arm_flex_l	arm_add_l	arm_rot_l	elbow_flex_l	pro_sup_l	wrist_flex_l	wrist_dev_l
0.000000	0.769741	-2.578812	89.774554	0.202791	0.687372	0.807836	6.456431	-1.972968	-0.606411	10.881653	0.189921	30.819201	2.138728	0.000000	6.484456	2.151856	-7.928722	9.765724	0.170444	32.874552	-6.185418	0.000000	0.185030	-0.304145	1.063279	0.343619	-0.404513	1.129734	0.303986	-0.739498	1.129734	0.211471	-0.739498	0.930369	0.171819	-0.620213	0.863914	0.105726	-0.471121	0.797459	1.321651	-3.440550	5.913637	0.000000	0.000000	26.721369	6.644011	-1.161643	19.875740	1.204413	89.919540	31.583162	87.643557	-11.330910	0.136196	18.025644	-5.960782	74.619391	39.818199	85.852948	-3.306310	-0.981322
0.023256	0.635782	-2.066450	89.602872	0.204104	0.688117	0.805160	5.165506	-2.274071	-3.268324	9.688877	0.169103	31.646743	6.819297	0.000000	4.301234	2.541475	-4.672102	6.856972	0.119677	31.189477	-9.545828	0.000000	0.175666	-0.338242	0.963269	0.326229	-0.449862	1.023473	0.288601	-0.822402	1.023473	0.200768	-0.822402	0.842860	0.163123	-0.689743	0.782656	0.100375	-0.523937	0.722452	1.254762	-3.826263	5.357413	0.000000	0.000000	26.383646	6.081617	-2.223871	21.020958	1.615467	93.331947	32.086688	88.145696	-14.218565	-1.071377	17.534081	-6.219438	71.790280	41.450870	86.167505	-3.079580	-0.056657
0.046512	0.546255	-1.716488	89.513356	0.204961	0.688659	0.803227	4.179195	-2.503988	-5.350426	8.752214	0.152755	32.161018	10.258259	0.000000	2.687161	2.850566	-2.194664	4.651642	0.081186	29.863036	-12.158125	0.000000	0.168135	-0.361690	0.895283	0.312243	-0.481048	0.951238	0.276229	-0.879414	0.951238	0.192161	-0.879414	0.783372	0.156130	-0.737559	0.727417	0.096072	-0.560259	0.671462	1.200971	-4.091515	4.979294	0.000000	0.000000	26.206059	5.717795	-2.969683	21.851600	1.948468	96.004243	31.970975	88.488773	-16.168063	-2.082223	17.223979	-6.385686	70.222740	42.363576	86.271205	-2.827825	0.583652
0.069767	0.495989	-1.506071	89.490875	0.205441	0.689020	0.801951	3.475577	-2.667556	-6.899389	8.064264	0.140748	32.415719	12.589275	0.000000	1.589177	3.079952	-0.432661	3.099780	0.054101	28.877245	-14.076777	0.000000	0.162240	-0.375853	0.856575	0.301295	-0.499885	0.910111	0.266544	-0.913850	0.910111	0.185424	-0.913850	0.749504	0.150656	-0.766440	0.695968	0.092704	-0.582197	0.642432	1.158862	-4.251728	4.764016	0.000000	0.000000	26.155470	5.524596	-3.439034	22.381701	2.200147	97.902531	31.406982	88.689761	-17.282914	-2.884455	17.065357	-6.470509	69.678707	42.681022	86.195914	-2.575427	0.973253
0.093023	0.479817	-1.412343	89.520301	0.205623	0.689221	0.801242	3.032729	-2.769614	-7.961888	7.617629	0.132953	32.464537	13.946008	0.000000	0.954221	3.230457	0.677652	2.151433	0.037550	28.214119	-15.356253	0.000000	0.157781	-0.382094	0.844402	0.293016	-0.508185	0.897178	0.259219	-0.929024	0.897178	0.180328	-0.929024	0.738852	0.146516	-0.779166	0.686077	0.090156	-0.591864	0.633302	1.127017	-4.322325	4.696313	0.000000	0.000000	26.198745	5.474068	-3.671881	22.625299	2.367232	98.992913	30.565670	88.765633	-17.666630	-3.466188	17.028232	-6.484893	69.920117	42.527912	85.973493	-2.346766	1.145794
0.116279	0.492569	-1.412450	89.586501	0.205586	0.689283	0.801013	2.828730	-2.815000	-8.584593	7.404908	0.129240	32.361162	14.462123	0.000000	0.729234	3.302905	1.200021	1.756647	0.030659	27.855672	-16.051023	0.000000	0.154562	-0.381776	0.856019	0.287037	-0.507762	0.909520	0.253930	-0.928250	0.909520	0.176649	-0.928250	0.749016	0.143526	-0.778518	0.695515	0.088317	-0.591371	0.642014	1.104022	-4.318728	4.760919	0.000000	0.000000	26.302748	5.538261	-3.708179	22.596428	2.446452	99.241492	29.617999	88.733361	-17.422723	-3.815536	17.082622	-6.439822	70.708908	42.028950	85.635808	-2.166224	1.134920
0.139535	0.529077	-1.483534	89.674346	0.205409	0.689227	0.801177	2.841658	-2.808551	-8.814179	7.418703	0.129481	32.159285	14.271281	0.000000	0.861155	3.298119	1.198192	1.865468	0.032559	27.783918	-16.215554	0.000000	0.152383	-0.376263	0.888679	0.282991	-0.500429	0.944222	0.250350	-0.914845	0.944222	0.174159	-0.914845	0.777595	0.141503	-0.767275	0.722052	0.087072	-0.582831	0.666510	1.088458	-4.256357	4.942569	0.000000	0.000000	26.434342	5.689223	-3.587884	22.309127	2.434538	98.614370	28.734927	88.609918	-16.654702	-3.920611	17.198545	-6.346279	71.807016	41.308842	85.214721	-2.058183	0.974281
0.162791	0.584171	-1.602742	89.768706	0.205171	0.689074	0.801646	3.049590	-2.755106	-8.697319	7.651615	0.133546	31.912598	13.507145	0.000000	1.296924	3.216922	0.735909	2.427944	0.042376	27.980873	-15.904316	0.000000	0.151047	-0.366917	0.939640	0.280509	-0.487999	0.998368	0.248154	-0.892121	0.998368	0.172631	-0.892121	0.822185	0.140262	-0.748217	0.763458	0.086308	-0.568354	0.704730	1.078911	-4.150635	5.225996	0.000000	0.000000	26.560394	5.899004	-3.350952	21.777429	2.328217	97.077651	28.087416	88.412277	-15.466079	-3.769529	17.346020	-6.215250	72.976379	40.492291	84.742097	-2.047023	0.697522
0.186047	0.652683	-1.747218	89.854450	0.204951	0.688845	0.802333	3.430604	-2.659504	-8.280685	8.096245	0.141306	31.674793	12.303380	0.000000	1.983482	3.060139	-0.123081	3.394120	0.059239	28.428550	-15.171777	0.000000	0.150354	-0.355102	1.006156	0.279222	-0.472286	1.069040	0.247016	-0.863395	1.069040	0.171839	-0.863395	0.880386	0.139619	-0.724124	0.817502	0.085912	-0.550053	0.754617	1.073962	-4.016984	5.595936	0.000000	0.000000	26.647766	6.139653	-3.037339	21.015372	2.124219	94.597436	27.846424	88.157409	-13.960365	-3.350401	17.495063	-6.057718	73.978932	39.704003	84.249799	-2.157125	0.338291
0.209302	0.729444	-1.894105	89.916447	0.204828	0.688562	0.803149	3.962779	-2.526581	-7.610951	8.745192	0.152632	31.499559	10.793646	0.000000	2.867769	2.828593	-1.315032	4.714043	0.082276	29.108966	-14.072406	0.000000	0.150107	-0.342181	1.085482	0.278763	-0.455101	1.153324	0.246610	-0.831980	1.153324	0.171557	-0.831980	0.949796	0.139389	-0.697776	0.881954	0.085771	-0.530039	0.814111	1.072197	-3.870825	6.037123	0.000000	0.000000	26.663324	6.383220	-2.687001	20.036992	1.819275	91.139829	28.182913	87.862289	-12.241071	-2.651343	17.615694	-5.884669	74.576613	39.068680	83.769690	-2.412872	-0.069765
0.232558	0.809284	-2.020550	89.939568	0.204880	0.688245	0.804007	4.624192	-2.361176	-6.734789	9.591060	0.167396	31.440589	9.111609	0.000000	3.896724	2.523107	-2.776200	6.337760	0.110615	30.004133	-12.660672	0.000000	0.150107	-0.329519	1.174873	0.278763	-0.438260	1.248303	0.246610	-0.801192	1.248303	0.171557	-0.801192	1.028014	0.139389	-0.671954	0.954584	0.085771	-0.510424	0.881155	1.072198	-3.727581	6.534291	0.000000	0.000000	26.573932	6.601752	-2.339893	18.856325	1.410112	86.670932	29.267840	87.543888	-10.411709	-1.660468	17.677929	-5.707086	74.531359	38.711029	83.333634	-2.838644	-0.492998
